<svg xmlns="http://www.w3.org/2000/svg" viewBox="0 0 500 150" width="500" height="150">
    <!-- Background shape -->
    <rect width="500" height="150" rx="20" fill="none"/>

    <!-- Icon Container -->
    <g transform="translate(30, 25)">
        <rect width="100" height="100" rx="24" fill="#3b82f6" />
        <g stroke="#ffffff" stroke-width="6" stroke-linecap="round" stroke-linejoin="round" fill="none" transform="translate(26, 26) scale(2)">
            <path d="M21 16V8a2 2 0 0 0-1-1.73l-7-4a2 2 0 0 0-2 0l-7 4A2 2 0 0 0 3 8v8a2 2 0 0 0 1 1.73l7 4a2 2 0 0 0 2 0l7-4A2 2 0 0 0 21 16z"></path>
            <polyline points="3.27 6.96 12 12.01 20.73 6.96"></polyline>
            <line x1="12" y1="22.08" x2="12" y2="12"></line>
        </g>
    </g>

    <!-- Text -->
    <text x="160" y="80" font-family="'Inter', sans-serif" font-weight="700" font-size="48" fill="#1e293b">KabarKurir</text>
    <text x="162" y="115" font-family="'Inter', sans-serif" font-weight="500" font-size="20" fill="#64748b">Pantau Logistik Tanpa Sensor</text>
</svg>